%
T1C.012F095S3
X0186Y0488
X0158Y05245
X01893Y06055
X0165Y06115
X01695Y0614
X01555Y0624
X0167Y0627
X01725Y0632
X02Y0697
X01915Y07005
X019899Y070301
X0183Y0706
X0172Y07895
X01965Y0815
X01865Y08245
X01915Y08364
X0175Y084
X0172Y08435
X0175Y0853
X0175Y08705
X0183Y08713
X0203Y08719
X0223Y08705
X0243Y08705
X024519Y086731
X0233Y08665
X02055Y0861
X021Y08595
X02275Y08575
X0252Y0854
X021021Y084871
X02065Y08445
X0233Y0844
X02465Y0833
X023Y0833
X0243Y08285
X0253Y08285
X0213Y0816
X0208Y0816
X0248Y0791
X023109Y07775
X023Y07215
X0253Y07135
X0243Y0711
X0249Y0699
X02415Y06982
X02359Y069629
X0244Y0682
X02215Y06538
X0221Y065
X0225Y0648
X02075Y06237
X0249Y06237
X023623Y061373
X02525Y061265
X0242Y0527
X023Y05215
X02765Y0539
X0282Y05985
X02845Y060913
X03005Y061237
X02685Y0614
X0283Y0614
X0297Y0614
X03Y0633
X02835Y06365
X03Y0647
X02565Y0648
X02665Y0648
X02772Y06493
X02875Y0653
X028354Y065696
X0266Y0659
X02635Y0668
X0291Y06845
X02665Y06855
X02865Y06939
X0257Y06965
X02815Y0697
X030526Y069864
X02585Y07045
X0291Y07145
X0304Y0715
X028783Y07277
X0289Y07315
X0303Y07355
X02815Y0736
X0272Y0737
X02845Y07385
X028413Y07423
X02895Y0746
X02844Y07491
X0284Y07695
X0268Y0791
X02965Y0808
X02585Y0824
X0284Y08355
X0294Y084263
X0272Y08435
X0283Y0866
X0303Y08667
X0283Y087
X0303Y08705
X0323Y08705
X0323Y0866
X0324Y0846
X0312Y084
X0323Y08157
X03205Y08025
X03285Y0796
X03165Y0748
X0307Y07455
X0324Y0743
X03165Y0719
X03215Y07185
X03127Y071836
X03182Y07155
X03275Y07025
X031999Y07025
X032273Y069987
X03165Y0697
X03085Y06965
X032935Y066035
X0328Y06475
X0319Y06475
X0307Y06465
X030992Y06237
X03165Y061237
X032Y05305
X03405Y05335
X03455Y060603
X03455Y061163
X03325Y061237
X03485Y0614
X0343Y0632
X03425Y06412
X034392Y0645
X03335Y06475
X03485Y06475
X03395Y06485
X0334Y066
X03315Y06845
X03415Y06936
X034192Y071688
X03335Y07185
X0337Y07275
X0331Y07705
X03355Y0783
X0333Y07902
X03535Y07975
X0348Y08275
X0355Y083
X0333Y08372
X0331Y0844
X0352Y0846
X0348Y08485
X0333Y08705
X0365Y088
X03635Y08705
X03665Y0846
X03703Y08445
X037285Y083565
X036Y083
X0373Y0791
X03795Y0789
X03695Y0778
X03783Y07778
X03735Y0777
X038Y0774
X0358Y0755
X0377Y07488
X0377Y0745
X0372Y0744
X03595Y0741
X03715Y07275
X0358Y07235
X03665Y07014
X03732Y0698
X0377Y0698
X03615Y0685
X0371Y06785
X0364Y0663
X03742Y06468
X0357Y06327
X0364Y06325
X0374Y0624
X03645Y061237
X03675Y053496
X0393Y05985
X03805Y061237
X0385Y06325
X0392Y06325
X0399Y06325
X04015Y06785
X03815Y06835
X03915Y0685
X0394Y0706
X04035Y07225
X039625Y07275
X0392Y07355
X04015Y07425
X04015Y082
X04005Y08238
X03947Y08267
X040419Y083852
X04025Y08435
X0391Y08445
X0383Y0863
X0383Y0868
X04045Y0869
X04255Y0864
X04245Y08555
X0425Y084
X04055Y08195
X04237Y07903
X0429Y079
X04125Y07775
X0415Y0726
X04265Y0718
X0412Y07152
X04155Y06845
X04265Y06585
X041173Y0641
X0419Y06318
X04265Y06318
X0421Y06244
X04125Y0614
X0425Y06134
X04288Y061237
X0423Y06055
X0417Y05375
X0453Y0606
X04445Y0614
X0448Y06318
X0441Y06318
X04335Y06318
X04345Y06845
X04395Y06975
X04405Y07013
X04305Y0721
X0443Y0729
X0447Y07355
X0455Y07785
X04375Y0791
X04525Y07935
X0442Y08135
X045Y0816
X045Y082675
X04375Y08485
X04461Y08535
X0467Y0868
X04555Y0864
X0457Y08575
X04795Y08465
X04645Y084
X0471Y08245
X0475Y08235
X04795Y0791
X04705Y0729
X04705Y07252
X04655Y0717
X04617Y06982
X04765Y0693
X047797Y068458
X0474Y06415
X0479Y0637
X048001Y0633
X04625Y06325
X04692Y06325
X04555Y06318
X04667Y0624
X047782Y061368
X045667Y05385
X04685Y053496
X0507Y0533
X04815Y05725
X05253Y0583
X05245Y06035
X05Y0606
X048762Y0624
X05075Y0624
X048382Y062482
X051837Y0631
X0497Y06325
X05155Y06335
X0487Y06362
X04865Y0647
X0508Y0647
X0514Y06475
X0483Y0668
X0496Y06845
X0508Y06965
X04845Y06986
X04815Y0796
X049Y08105
X04845Y084
X05245Y08405
X05165Y08485
X04855Y0864
X05055Y0866
X05265Y0868
X05375Y08685
X05781Y08575
X05375Y08455
X05775Y0845
X05445Y084205
X05525Y08145
X0545Y07955
X0559Y0778
X0548Y0751
X056Y0737
X05307Y06678
X05795Y06615
X057418Y06337
X0531Y06325
X05578Y05682
X061481Y054368
X0612Y0554
X0628Y0624
X061Y0676
X06275Y06773
X0596Y0833
X0617Y0833
X062Y08485
X0582Y08595
X06255Y0864
X06155Y08705
X05955Y08705
X06355Y08705
X06365Y08485
T2C.037F197S55
X039873Y07554
X039873Y07654
X048824Y076582
X044369Y07654
X046597Y07654
X0421Y07654
X048824Y075582
X046597Y07554
X044369Y07554
X0421Y07554
X051052Y075582
X051052Y076582
T3C.03937F197S55
X0592Y073862
X059987Y073862
X059987Y074846
X0592Y074846
T4C.04F139S55
X02161Y07361
X02261Y07411
X02161Y07461
X02261Y07511
X02161Y07561
X02261Y07611
T5C.06299F089S55
X020406Y049465
X022059Y049465
X020406Y051635
X022059Y051635
X022059Y093115
X020406Y093115
X022059Y095285
X020406Y095285
X025366Y095285
X023713Y095285
X02702Y095285
X025366Y093115
X02702Y093115
X023713Y093115
X025366Y051635
X023713Y051635
X02702Y051635
X02702Y049465
X023713Y049465
X025366Y049465
X028673Y049465
X030327Y049465
X03198Y049465
X030327Y051635
X028673Y051635
X03198Y051635
X030327Y093115
X028673Y093115
X03198Y093115
X028673Y095285
X03198Y095285
X030327Y095285
X035287Y095285
X033634Y095285
X036941Y095285
X033634Y093115
X035287Y093115
X036941Y093115
X033634Y051635
X035287Y051635
X036941Y051635
X033634Y049465
X036941Y049465
X035287Y049465
X038594Y049465
X041406Y049465
X043059Y049465
X044713Y049465
X041406Y051635
X038594Y051635
X044713Y051635
X043059Y051635
X043059Y093115
X044713Y093115
X041406Y093115
X038594Y093115
X038594Y095285
X044713Y095285
X041406Y095285
X043059Y095285
X04802Y095285
X046366Y095285
X049673Y095285
X046366Y093115
X04802Y093115
X049673Y093115
X04802Y051635
X046366Y051635
X049673Y051635
X049673Y049465
X046366Y049465
X04802Y049465
X051327Y049465
X05298Y049465
X054634Y049465
X05298Y051635
X051327Y051635
X054634Y051635
X05298Y093115
X051327Y093115
X054634Y093115
X051327Y095285
X054634Y095285
X05298Y095285
X057941Y095285
X056287Y095285
X059594Y095285
X057941Y093115
X056287Y093115
X059594Y093115
X057941Y051635
X059594Y051635
X056287Y051635
X056287Y049465
X059594Y049465
X057941Y049465
T6C.08268F074S55
X061066Y071992
X061066Y076716
T7C.13F035S794
X01911Y07286
X01911Y07686
T8C.157F035S9
X01658Y05029
X0166Y09441
X06339Y0944
X06342Y0503
M30
