*
*
G04 PADS 9.3 Build Number: 433611 generated Gerber (RS-274-X) file*
G04 PC Version=2.1*
*
%IN "UHT_V2_BLZ3.PCB"*%
*
%MOIN*%
*
%FSLAX35Y35*%
*
*
*
*
G04 PC Standard Apertures*
*
*
G04 Thermal Relief Aperture macro.*
%AMTER*
1,1,$1,0,0*
1,0,$1-$2,0,0*
21,0,$3,$4,0,0,45*
21,0,$3,$4,0,0,135*
%
*
*
G04 Annular Aperture macro.*
%AMANN*
1,1,$1,0,0*
1,0,$2,0,0*
%
*
*
G04 Odd Aperture macro.*
%AMODD*
1,1,$1,0,0*
1,0,$1-0.005,0,0*
%
*
*
G04 PC Custom Aperture Macros*
*
*
*
*
*
*
G04 PC Aperture Table*
*
%ADD010C,0.01*%
%ADD062C,0.001*%
*
*
*
*
G04 PC Circuitry*
G04 Layer Name UHT_V2_BLZ3.PCB - circuitry*
%LPD*%
*
*
G04 PC Custom Flashes*
G04 Layer Name UHT_V2_BLZ3.PCB - flashes*
%LPD*%
*
*
G04 PC Circuitry*
G04 Layer Name UHT_V2_BLZ3.PCB - circuitry*
%LPD*%
*
G54D10*
G01X260600Y735800D02*
Y743800D01*
X269600*
Y735800*
X260600Y732800D02*
Y724800D01*
X269600*
Y732800*
X323950Y703900D02*
X315900D01*
Y713900*
X323950*
X331450Y703900D02*
X339500D01*
Y713900*
X331450*
X382200Y729050D02*
Y721000D01*
X372200*
Y729050*
X382200Y736550D02*
Y744600D01*
X372200*
Y736550*
X271800Y738550D02*
Y746600D01*
X281800*
Y738550*
X271800Y731050D02*
Y723000D01*
X281800*
Y731050*
X208200Y611000D02*
X205700D01*
Y616000*
X214200Y611000D02*
X216700D01*
Y616000*
X210700Y620000D02*
X211700D01*
X207600Y558000D02*
X205100D01*
Y563000*
X213600Y558000D02*
X216100D01*
Y563000*
X210100Y567000D02*
X211100D01*
X172000Y611000D02*
X169500D01*
Y616000*
X178000Y611000D02*
X180500D01*
Y616000*
X174500Y620000D02*
X175500D01*
X171400Y558000D02*
X168900D01*
Y563000*
X177400Y558000D02*
X179900D01*
Y563000*
X173900Y567000D02*
X174900D01*
X156000Y611000D02*
X153500D01*
Y616000*
X162000Y611000D02*
X164500D01*
Y616000*
X158500Y620000D02*
X159500D01*
X155400Y558000D02*
X152900D01*
Y563000*
X161400Y558000D02*
X163900D01*
Y563000*
X157900Y567000D02*
X158900D01*
X188000Y611000D02*
X185500D01*
Y616000*
X194000Y611000D02*
X196500D01*
Y616000*
X190500Y620000D02*
X191500D01*
X187400Y558000D02*
X184900D01*
Y563000*
X193400Y558000D02*
X195900D01*
Y563000*
X189900Y567000D02*
X190900D01*
X237900Y611000D02*
X235400D01*
Y616000*
X243900Y611000D02*
X246400D01*
Y616000*
X240400Y620000D02*
X241400D01*
X237300Y558000D02*
X234800D01*
Y563000*
X243300Y558000D02*
X245800D01*
Y563000*
X239800Y567000D02*
X240800D01*
X221900Y611000D02*
X219400D01*
Y616000*
X227900Y611000D02*
X230400D01*
Y616000*
X224400Y620000D02*
X225400D01*
X221300Y558000D02*
X218800D01*
Y563000*
X227300Y558000D02*
X229800D01*
Y563000*
X223800Y567000D02*
X224800D01*
X269900Y611000D02*
X267400D01*
Y616000*
X275900Y611000D02*
X278400D01*
Y616000*
X272400Y620000D02*
X273400D01*
X269300Y558000D02*
X266800D01*
Y563000*
X275300Y558000D02*
X277800D01*
Y563000*
X271800Y567000D02*
X272800D01*
X301900Y611000D02*
X299400D01*
Y616000*
X307900Y611000D02*
X310400D01*
Y616000*
X304400Y620000D02*
X305400D01*
X301300Y558000D02*
X298800D01*
Y563000*
X307300Y558000D02*
X309800D01*
Y563000*
X303800Y567000D02*
X304800D01*
X253900Y611000D02*
X251400D01*
Y616000*
X259900Y611000D02*
X262400D01*
Y616000*
X256400Y620000D02*
X257400D01*
X253300Y558000D02*
X250800D01*
Y563000*
X259300Y558000D02*
X261800D01*
Y563000*
X255800Y567000D02*
X256800D01*
X285900Y611000D02*
X283400D01*
Y616000*
X291900Y611000D02*
X294400D01*
Y616000*
X288400Y620000D02*
X289400D01*
X285300Y558000D02*
X282800D01*
Y563000*
X291300Y558000D02*
X293800D01*
Y563000*
X287800Y567000D02*
X288800D01*
X333900Y611000D02*
X331400D01*
Y616000*
X339900Y611000D02*
X342400D01*
Y616000*
X336400Y620000D02*
X337400D01*
X333300Y558000D02*
X330800D01*
Y563000*
X339300Y558000D02*
X341800D01*
Y563000*
X335800Y567000D02*
X336800D01*
X317900Y611000D02*
X315400D01*
Y616000*
X323900Y611000D02*
X326400D01*
Y616000*
X320400Y620000D02*
X321400D01*
X317300Y558000D02*
X314800D01*
Y563000*
X323300Y558000D02*
X325800D01*
Y563000*
X319800Y567000D02*
X320800D01*
X365900Y611000D02*
X363400D01*
Y616000*
X371900Y611000D02*
X374400D01*
Y616000*
X368400Y620000D02*
X369400D01*
X365300Y558000D02*
X362800D01*
Y563000*
X371300Y558000D02*
X373800D01*
Y563000*
X367800Y567000D02*
X368800D01*
X397900Y611000D02*
X395400D01*
Y616000*
X403900Y611000D02*
X406400D01*
Y616000*
X400400Y620000D02*
X401400D01*
X397300Y558000D02*
X394800D01*
Y563000*
X403300Y558000D02*
X405800D01*
Y563000*
X399800Y567000D02*
X400800D01*
X349900Y611000D02*
X347400D01*
Y616000*
X355900Y611000D02*
X358400D01*
Y616000*
X352400Y620000D02*
X353400D01*
X349300Y558000D02*
X346800D01*
Y563000*
X355300Y558000D02*
X357800D01*
Y563000*
X351800Y567000D02*
X352800D01*
X381900Y611000D02*
X379400D01*
Y616000*
X387900Y611000D02*
X390400D01*
Y616000*
X384400Y620000D02*
X385400D01*
X381300Y558000D02*
X378800D01*
Y563000*
X387300Y558000D02*
X389800D01*
Y563000*
X383800Y567000D02*
X384800D01*
X429900Y611000D02*
X427400D01*
Y616000*
X435900Y611000D02*
X438400D01*
Y616000*
X432400Y620000D02*
X433400D01*
X429300Y558000D02*
X426800D01*
Y563000*
X435300Y558000D02*
X437800D01*
Y563000*
X431800Y567000D02*
X432800D01*
X413900Y611000D02*
X411400D01*
Y616000*
X419900Y611000D02*
X422400D01*
Y616000*
X416400Y620000D02*
X417400D01*
X413300Y558000D02*
X410800D01*
Y563000*
X419300Y558000D02*
X421800D01*
Y563000*
X415800Y567000D02*
X416800D01*
X461900Y611000D02*
X459400D01*
Y616000*
X467900Y611000D02*
X470400D01*
Y616000*
X464400Y620000D02*
X465400D01*
X461300Y558000D02*
X458800D01*
Y563000*
X467300Y558000D02*
X469800D01*
Y563000*
X463800Y567000D02*
X464800D01*
X500500Y611000D02*
X498000D01*
Y616000*
X506500Y611000D02*
X509000D01*
Y616000*
X503000Y620000D02*
X504000D01*
X499900Y558000D02*
X497400D01*
Y563000*
X505900Y558000D02*
X508400D01*
Y563000*
X502400Y567000D02*
X503400D01*
X445900Y611000D02*
X443400D01*
Y616000*
X451900Y611000D02*
X454400D01*
Y616000*
X448400Y620000D02*
X449400D01*
X445300Y558000D02*
X442800D01*
Y563000*
X451300Y558000D02*
X453800D01*
Y563000*
X447800Y567000D02*
X448800D01*
X480100Y611000D02*
X477600D01*
Y616000*
X486100Y611000D02*
X488600D01*
Y616000*
X482600Y620000D02*
X483600D01*
X479500Y558000D02*
X477000D01*
Y563000*
X485500Y558000D02*
X488000D01*
Y563000*
X482000Y567000D02*
X483000D01*
X532500Y611000D02*
X530000D01*
Y616000*
X538500Y611000D02*
X541000D01*
Y616000*
X535000Y620000D02*
X536000D01*
X531900Y558000D02*
X529400D01*
Y563000*
X537900Y558000D02*
X540400D01*
Y563000*
X534400Y567000D02*
X535400D01*
X516500Y611000D02*
X514000D01*
Y616000*
X522500Y611000D02*
X525000D01*
Y616000*
X519000Y620000D02*
X520000D01*
X515900Y558000D02*
X513400D01*
Y563000*
X521900Y558000D02*
X524400D01*
Y563000*
X518400Y567000D02*
X519400D01*
X207700Y581200D02*
Y587000D01*
X214700*
Y581200*
X207700Y578800D02*
Y573000D01*
X214700*
Y578800*
X207700Y598200D02*
Y604000D01*
X214700*
Y598200*
X207700Y595800D02*
Y590000D01*
X214700*
Y595800*
X206500Y547200D02*
Y553000D01*
X213500*
Y547200*
X206500Y544800D02*
Y539000D01*
X213500*
Y544800*
X171500Y581200D02*
Y587000D01*
X178500*
Y581200*
X171500Y578800D02*
Y573000D01*
X178500*
Y578800*
Y595800D02*
Y590000D01*
X171500*
Y595800*
X178500Y598200D02*
Y604000D01*
X171500*
Y598200*
X170300Y547200D02*
Y553000D01*
X177300*
Y547200*
X170300Y544800D02*
Y539000D01*
X177300*
Y544800*
X155500Y581200D02*
Y587000D01*
X162500*
Y581200*
X155500Y578800D02*
Y573000D01*
X162500*
Y578800*
Y595800D02*
Y590000D01*
X155500*
Y595800*
X162500Y598200D02*
Y604000D01*
X155500*
Y598200*
X154300Y547200D02*
Y553000D01*
X161300*
Y547200*
X154300Y544800D02*
Y539000D01*
X161300*
Y544800*
X187500Y581200D02*
Y587000D01*
X194500*
Y581200*
X187500Y578800D02*
Y573000D01*
X194500*
Y578800*
X187500Y598200D02*
Y604000D01*
X194500*
Y598200*
X187500Y595800D02*
Y590000D01*
X194500*
Y595800*
X186300Y547200D02*
Y553000D01*
X193300*
Y547200*
X186300Y544800D02*
Y539000D01*
X193300*
Y544800*
X244400Y578800D02*
Y573000D01*
X237400*
Y578800*
X244400Y581200D02*
Y587000D01*
X237400*
Y581200*
Y598200D02*
Y604000D01*
X244400*
Y598200*
X237400Y595800D02*
Y590000D01*
X244400*
Y595800*
X236200Y547200D02*
Y553000D01*
X243200*
Y547200*
X236200Y544800D02*
Y539000D01*
X243200*
Y544800*
X221400Y581200D02*
Y587000D01*
X228400*
Y581200*
X221400Y578800D02*
Y573000D01*
X228400*
Y578800*
X221400Y598200D02*
Y604000D01*
X228400*
Y598200*
X221400Y595800D02*
Y590000D01*
X228400*
Y595800*
X220200Y547200D02*
Y553000D01*
X227200*
Y547200*
X220200Y544800D02*
Y539000D01*
X227200*
Y544800*
X269400Y581200D02*
Y587000D01*
X276400*
Y581200*
X269400Y578800D02*
Y573000D01*
X276400*
Y578800*
X269400Y598200D02*
Y604000D01*
X276400*
Y598200*
X269400Y595800D02*
Y590000D01*
X276400*
Y595800*
X268200Y547200D02*
Y553000D01*
X275200*
Y547200*
X268200Y544800D02*
Y539000D01*
X275200*
Y544800*
X301400Y581200D02*
Y587000D01*
X308400*
Y581200*
X301400Y578800D02*
Y573000D01*
X308400*
Y578800*
X301400Y598200D02*
Y604000D01*
X308400*
Y598200*
X301400Y595800D02*
Y590000D01*
X308400*
Y595800*
X300200Y547200D02*
Y553000D01*
X307200*
Y547200*
X300200Y544800D02*
Y539000D01*
X307200*
Y544800*
X253400Y598200D02*
Y604000D01*
X260400*
Y598200*
X253400Y595800D02*
Y590000D01*
X260400*
Y595800*
X253400Y581200D02*
Y587000D01*
X260400*
Y581200*
X253400Y578800D02*
Y573000D01*
X260400*
Y578800*
X252200Y547200D02*
Y553000D01*
X259200*
Y547200*
X252200Y544800D02*
Y539000D01*
X259200*
Y544800*
X285400Y581200D02*
Y587000D01*
X292400*
Y581200*
X285400Y578800D02*
Y573000D01*
X292400*
Y578800*
X285400Y598200D02*
Y604000D01*
X292400*
Y598200*
X285400Y595800D02*
Y590000D01*
X292400*
Y595800*
X284200Y547200D02*
Y553000D01*
X291200*
Y547200*
X284200Y544800D02*
Y539000D01*
X291200*
Y544800*
X333400Y581200D02*
Y587000D01*
X340400*
Y581200*
X333400Y578800D02*
Y573000D01*
X340400*
Y578800*
X333400Y598200D02*
Y604000D01*
X340400*
Y598200*
X333400Y595800D02*
Y590000D01*
X340400*
Y595800*
X332200Y547200D02*
Y553000D01*
X339200*
Y547200*
X332200Y544800D02*
Y539000D01*
X339200*
Y544800*
X317400Y581200D02*
Y587000D01*
X324400*
Y581200*
X317400Y578800D02*
Y573000D01*
X324400*
Y578800*
X317400Y598200D02*
Y604000D01*
X324400*
Y598200*
X317400Y595800D02*
Y590000D01*
X324400*
Y595800*
X316200Y547200D02*
Y553000D01*
X323200*
Y547200*
X316200Y544800D02*
Y539000D01*
X323200*
Y544800*
X365400Y581200D02*
Y587000D01*
X372400*
Y581200*
X365400Y578800D02*
Y573000D01*
X372400*
Y578800*
X365400Y598200D02*
Y604000D01*
X372400*
Y598200*
X365400Y595800D02*
Y590000D01*
X372400*
Y595800*
X364200Y547200D02*
Y553000D01*
X371200*
Y547200*
X364200Y544800D02*
Y539000D01*
X371200*
Y544800*
X397400Y598200D02*
Y604000D01*
X404400*
Y598200*
X397400Y595800D02*
Y590000D01*
X404400*
Y595800*
X397400Y581200D02*
Y587000D01*
X404400*
Y581200*
X397400Y578800D02*
Y573000D01*
X404400*
Y578800*
X396200Y547200D02*
Y553000D01*
X403200*
Y547200*
X396200Y544800D02*
Y539000D01*
X403200*
Y544800*
X349400Y598200D02*
Y604000D01*
X356400*
Y598200*
X349400Y595800D02*
Y590000D01*
X356400*
Y595800*
X349400Y581200D02*
Y587000D01*
X356400*
Y581200*
X349400Y578800D02*
Y573000D01*
X356400*
Y578800*
X348200Y547200D02*
Y553000D01*
X355200*
Y547200*
X348200Y544800D02*
Y539000D01*
X355200*
Y544800*
X381400Y581200D02*
Y587000D01*
X388400*
Y581200*
X381400Y578800D02*
Y573000D01*
X388400*
Y578800*
X381400Y598200D02*
Y604000D01*
X388400*
Y598200*
X381400Y595800D02*
Y590000D01*
X388400*
Y595800*
X380200Y547200D02*
Y553000D01*
X387200*
Y547200*
X380200Y544800D02*
Y539000D01*
X387200*
Y544800*
X429400Y581200D02*
Y587000D01*
X436400*
Y581200*
X429400Y578800D02*
Y573000D01*
X436400*
Y578800*
X429400Y598200D02*
Y604000D01*
X436400*
Y598200*
X429400Y595800D02*
Y590000D01*
X436400*
Y595800*
X428200Y547200D02*
Y553000D01*
X435200*
Y547200*
X428200Y544800D02*
Y539000D01*
X435200*
Y544800*
X413400Y581200D02*
Y587000D01*
X420400*
Y581200*
X413400Y578800D02*
Y573000D01*
X420400*
Y578800*
X413400Y598200D02*
Y604000D01*
X420400*
Y598200*
X413400Y595800D02*
Y590000D01*
X420400*
Y595800*
X412200Y547200D02*
Y553000D01*
X419200*
Y547200*
X412200Y544800D02*
Y539000D01*
X419200*
Y544800*
X461400Y581200D02*
Y587000D01*
X468400*
Y581200*
X461400Y578800D02*
Y573000D01*
X468400*
Y578800*
Y595800D02*
Y590000D01*
X461400*
Y595800*
X468400Y598200D02*
Y604000D01*
X461400*
Y598200*
X460200Y547200D02*
Y553000D01*
X467200*
Y547200*
X460200Y544800D02*
Y539000D01*
X467200*
Y544800*
X500000Y581200D02*
Y587000D01*
X507000*
Y581200*
X500000Y578800D02*
Y573000D01*
X507000*
Y578800*
X500000Y598200D02*
Y604000D01*
X507000*
Y598200*
X500000Y595800D02*
Y590000D01*
X507000*
Y595800*
X498800Y547200D02*
Y553000D01*
X505800*
Y547200*
X498800Y544800D02*
Y539000D01*
X505800*
Y544800*
X452400Y595800D02*
Y590000D01*
X445400*
Y595800*
X452400Y598200D02*
Y604000D01*
X445400*
Y598200*
X452400Y578800D02*
Y573000D01*
X445400*
Y578800*
X452400Y581200D02*
Y587000D01*
X445400*
Y581200*
X444200Y547200D02*
Y553000D01*
X451200*
Y547200*
X444200Y544800D02*
Y539000D01*
X451200*
Y544800*
X479600Y581200D02*
Y587000D01*
X486600*
Y581200*
X479600Y578800D02*
Y573000D01*
X486600*
Y578800*
X479600Y598200D02*
Y604000D01*
X486600*
Y598200*
X479600Y595800D02*
Y590000D01*
X486600*
Y595800*
X478400Y547200D02*
Y553000D01*
X485400*
Y547200*
X478400Y544800D02*
Y539000D01*
X485400*
Y544800*
X532000Y598200D02*
Y604000D01*
X539000*
Y598200*
X532000Y595800D02*
Y590000D01*
X539000*
Y595800*
X532000Y581200D02*
Y587000D01*
X539000*
Y581200*
X532000Y578800D02*
Y573000D01*
X539000*
Y578800*
X530800Y547200D02*
Y553000D01*
X537800*
Y547200*
X530800Y544800D02*
Y539000D01*
X537800*
Y544800*
X516000Y598200D02*
Y604000D01*
X523000*
Y598200*
X516000Y595800D02*
Y590000D01*
X523000*
Y595800*
X516000Y581200D02*
Y587000D01*
X523000*
Y581200*
X516000Y578800D02*
Y573000D01*
X523000*
Y578800*
X514800Y547200D02*
Y553000D01*
X521800*
Y547200*
X514800Y544800D02*
Y539000D01*
X521800*
Y544800*
X148053Y962200D02*
X651940D01*
Y485300*
X148053*
Y962200*
G54D62*
X0Y0D02*
M02*
