*
*
G04 PADS 9.3 Build Number: 433611 generated Gerber (RS-274-X) file*
G04 PC Version=2.1*
*
%IN "UHT_V2_BLZ3.PCB"*%
*
%MOIN*%
*
%FSLAX35Y35*%
*
*
*
*
G04 PC Standard Apertures*
*
*
G04 Thermal Relief Aperture macro.*
%AMTER*
1,1,$1,0,0*
1,0,$1-$2,0,0*
21,0,$3,$4,0,0,45*
21,0,$3,$4,0,0,135*
%
*
*
G04 Annular Aperture macro.*
%AMANN*
1,1,$1,0,0*
1,0,$2,0,0*
%
*
*
G04 Odd Aperture macro.*
%AMODD*
1,1,$1,0,0*
1,0,$1-0.005,0,0*
%
*
*
G04 PC Custom Aperture Macros*
*
*
*
*
*
*
G04 PC Aperture Table*
*
%ADD058C,0.07*%
%ADD059C,0.08*%
%ADD062C,0.001*%
%ADD063R,0.07X0.07*%
%ADD065C,0.12024*%
%ADD066C,0.16*%
%ADD067C,0.1163*%
%ADD085C,0.19*%
%ADD094R,0.06X0.07*%
%ADD102R,0.046X0.06*%
%ADD112R,0.04X0.048*%
*
*
*
*
G04 PC Circuitry*
G04 Layer Name UHT_V2_BLZ3.PCB - circuitry*
%LPD*%
*
*
G04 PC Custom Flashes*
G04 Layer Name UHT_V2_BLZ3.PCB - flashes*
%LPD*%
*
*
G04 PC Circuitry*
G04 Layer Name UHT_V2_BLZ3.PCB - circuitry*
%LPD*%
*
G54D58*
G01X226100Y761100D03*
X216100Y756100D03*
X226100Y751100D03*
X216100Y746100D03*
X226100Y741100D03*
X216100Y736100D03*
X421000Y765400D03*
Y755400D03*
X465969Y765400D03*
Y755400D03*
X591998Y738619D03*
X599872Y748461D03*
Y738619D03*
X591998Y748461D03*
X510518Y765820D03*
Y755820D03*
X488243Y765820D03*
Y755820D03*
X398726Y765400D03*
Y755400D03*
X443695Y765400D03*
Y755400D03*
G54D59*
X183200Y521900D03*
X609500Y919700D03*
G54D62*
G54D63*
X320950Y708900D03*
X334450D03*
X377200Y726050D03*
Y739550D03*
X276800Y741550D03*
Y728050D03*
G54D65*
X385945Y952850D03*
X369409D03*
X352874D03*
X336339D03*
X319803D03*
X303268D03*
X286732D03*
X270197D03*
X253661D03*
X237126D03*
X220591D03*
X204055D03*
Y931150D03*
X220591D03*
X237126D03*
X253661D03*
X270197D03*
X286732D03*
X303268D03*
X319803D03*
X336339D03*
X352874D03*
X369409D03*
X385945D03*
X595945Y952850D03*
X579409D03*
X562874D03*
X546339D03*
X529803D03*
X513268D03*
X496732D03*
X480197D03*
X463661D03*
X447126D03*
X430591D03*
X414055D03*
Y931150D03*
X430591D03*
X447126D03*
X463661D03*
X480197D03*
X496732D03*
X513268D03*
X529803D03*
X546339D03*
X562874D03*
X579409D03*
X595945D03*
X204055Y494650D03*
X220591D03*
X237126D03*
X253661D03*
X270197D03*
X286732D03*
X303268D03*
X319803D03*
X336339D03*
X352874D03*
X369409D03*
X385945D03*
Y516350D03*
X369409D03*
X352874D03*
X336339D03*
X319803D03*
X303268D03*
X286732D03*
X270197D03*
X253661D03*
X237126D03*
X220591D03*
X204055D03*
X414055Y494650D03*
X430591D03*
X447126D03*
X463661D03*
X480197D03*
X496732D03*
X513268D03*
X529803D03*
X546339D03*
X562874D03*
X579409D03*
X595945D03*
Y516350D03*
X579409D03*
X562874D03*
X546339D03*
X529803D03*
X513268D03*
X496732D03*
X480197D03*
X463661D03*
X447126D03*
X430591D03*
X414055D03*
G54D66*
X191100Y768600D03*
Y728600D03*
G54D67*
X610660Y767162D03*
Y719918D03*
G54D85*
X634200Y503000D03*
X633900Y944000D03*
X166000Y944100D03*
X165800Y502900D03*
G54D94*
X265100Y738800D03*
Y729800D03*
G54D102*
X207450Y618900D03*
X214950D03*
X211200Y610900D03*
X206850Y565900D03*
X214350D03*
X210600Y557900D03*
X171250Y618900D03*
X178750D03*
X175000Y610900D03*
X170650Y565900D03*
X178150D03*
X174400Y557900D03*
X155250Y618900D03*
X162750D03*
X159000Y610900D03*
X154650Y565900D03*
X162150D03*
X158400Y557900D03*
X187250Y618900D03*
X194750D03*
X191000Y610900D03*
X186650Y565900D03*
X194150D03*
X190400Y557900D03*
X237150Y618900D03*
X244650D03*
X240900Y610900D03*
X236550Y565900D03*
X244050D03*
X240300Y557900D03*
X221150Y618900D03*
X228650D03*
X224900Y610900D03*
X220550Y565900D03*
X228050D03*
X224300Y557900D03*
X269150Y618900D03*
X276650D03*
X272900Y610900D03*
X268550Y565900D03*
X276050D03*
X272300Y557900D03*
X301150Y618900D03*
X308650D03*
X304900Y610900D03*
X300550Y565900D03*
X308050D03*
X304300Y557900D03*
X253150Y618900D03*
X260650D03*
X256900Y610900D03*
X252550Y565900D03*
X260050D03*
X256300Y557900D03*
X285150Y618900D03*
X292650D03*
X288900Y610900D03*
X284550Y565900D03*
X292050D03*
X288300Y557900D03*
X333150Y618900D03*
X340650D03*
X336900Y610900D03*
X332550Y565900D03*
X340050D03*
X336300Y557900D03*
X317150Y618900D03*
X324650D03*
X320900Y610900D03*
X316550Y565900D03*
X324050D03*
X320300Y557900D03*
X365150Y618900D03*
X372650D03*
X368900Y610900D03*
X364550Y565900D03*
X372050D03*
X368300Y557900D03*
X397150Y618900D03*
X404650D03*
X400900Y610900D03*
X396550Y565900D03*
X404050D03*
X400300Y557900D03*
X349150Y618900D03*
X356650D03*
X352900Y610900D03*
X348550Y565900D03*
X356050D03*
X352300Y557900D03*
X381150Y618900D03*
X388650D03*
X384900Y610900D03*
X380550Y565900D03*
X388050D03*
X384300Y557900D03*
X429150Y618900D03*
X436650D03*
X432900Y610900D03*
X428550Y565900D03*
X436050D03*
X432300Y557900D03*
X413150Y618900D03*
X420650D03*
X416900Y610900D03*
X412550Y565900D03*
X420050D03*
X416300Y557900D03*
X461150Y618900D03*
X468650D03*
X464900Y610900D03*
X460550Y565900D03*
X468050D03*
X464300Y557900D03*
X499750Y618900D03*
X507250D03*
X503500Y610900D03*
X499150Y565900D03*
X506650D03*
X502900Y557900D03*
X445150Y618900D03*
X452650D03*
X448900Y610900D03*
X444550Y565900D03*
X452050D03*
X448300Y557900D03*
X479350Y618900D03*
X486850D03*
X483100Y610900D03*
X478750Y565900D03*
X486250D03*
X482500Y557900D03*
X531750Y618900D03*
X539250D03*
X535500Y610900D03*
X531150Y565900D03*
X538650D03*
X534900Y557900D03*
X515750Y618900D03*
X523250D03*
X519500Y610900D03*
X515150Y565900D03*
X522650D03*
X518900Y557900D03*
G54D112*
X211200Y583100D03*
Y576900D03*
Y600100D03*
Y593900D03*
X210000Y549100D03*
Y542900D03*
X175000Y583100D03*
Y576900D03*
Y593900D03*
Y600100D03*
X173800Y549100D03*
Y542900D03*
X159000Y583100D03*
Y576900D03*
Y593900D03*
Y600100D03*
X157800Y549100D03*
Y542900D03*
X191000Y583100D03*
Y576900D03*
Y600100D03*
Y593900D03*
X189800Y549100D03*
Y542900D03*
X240900Y576900D03*
Y583100D03*
Y600100D03*
Y593900D03*
X239700Y549100D03*
Y542900D03*
X224900Y583100D03*
Y576900D03*
Y600100D03*
Y593900D03*
X223700Y549100D03*
Y542900D03*
X272900Y583100D03*
Y576900D03*
Y600100D03*
Y593900D03*
X271700Y549100D03*
Y542900D03*
X304900Y583100D03*
Y576900D03*
Y600100D03*
Y593900D03*
X303700Y549100D03*
Y542900D03*
X256900Y600100D03*
Y593900D03*
Y583100D03*
Y576900D03*
X255700Y549100D03*
Y542900D03*
X288900Y583100D03*
Y576900D03*
Y600100D03*
Y593900D03*
X287700Y549100D03*
Y542900D03*
X336900Y583100D03*
Y576900D03*
Y600100D03*
Y593900D03*
X335700Y549100D03*
Y542900D03*
X320900Y583100D03*
Y576900D03*
Y600100D03*
Y593900D03*
X319700Y549100D03*
Y542900D03*
X368900Y583100D03*
Y576900D03*
Y600100D03*
Y593900D03*
X367700Y549100D03*
Y542900D03*
X400900Y600100D03*
Y593900D03*
Y583100D03*
Y576900D03*
X399700Y549100D03*
Y542900D03*
X352900Y600100D03*
Y593900D03*
Y583100D03*
Y576900D03*
X351700Y549100D03*
Y542900D03*
X384900Y583100D03*
Y576900D03*
Y600100D03*
Y593900D03*
X383700Y549100D03*
Y542900D03*
X432900Y583100D03*
Y576900D03*
Y600100D03*
Y593900D03*
X431700Y549100D03*
Y542900D03*
X416900Y583100D03*
Y576900D03*
Y600100D03*
Y593900D03*
X415700Y549100D03*
Y542900D03*
X464900Y583100D03*
Y576900D03*
Y593900D03*
Y600100D03*
X463700Y549100D03*
Y542900D03*
X503500Y583100D03*
Y576900D03*
Y600100D03*
Y593900D03*
X502300Y549100D03*
Y542900D03*
X448900Y593900D03*
Y600100D03*
Y576900D03*
Y583100D03*
X447700Y549100D03*
Y542900D03*
X483100Y583100D03*
Y576900D03*
Y600100D03*
Y593900D03*
X481900Y549100D03*
Y542900D03*
X535500Y600100D03*
Y593900D03*
Y583100D03*
Y576900D03*
X534300Y549100D03*
Y542900D03*
X519500Y600100D03*
Y593900D03*
Y583100D03*
Y576900D03*
X518300Y549100D03*
Y542900D03*
X0Y0D02*
M02*
